PathFileType	4	(X/Y/Z)	61_2_100_p1_0-402.trc
DataRate	CameraRate	NumFrames	NumMarkers	Units	OrigDataRate	OrigDataStartFrame	OrigNumFrames
46.0	46.0	5	27	m	46.0	151	403
Frame#	Time	RHip			RKnee			RAnkle			RBigToe			RSmallToe			RHeel			LHip			LKnee			LAnkle			LBigToe			LSmallToe			LHeel			Neck			Head			Nose			RShoulder			RElbow			RWrist			RThumb			RIndex			RPinky			LShoulder			LElbow			LWrist			LThumb			LIndex			LPinky			
		X1	Y1	Z1	X2	Y2	Z2	X3	Y3	Z3	X4	Y4	Z4	X5	Y5	Z5	X6	Y6	Z6	X7	Y7	Z7	X8	Y8	Z8	X9	Y9	Z9	X10	Y10	Z10	X11	Y11	Z11	X12	Y12	Z12	X13	Y13	Z13	X14	Y14	Z14	X15	Y15	Z15	X16	Y16	Z16	X17	Y17	Z17	X18	Y18	Z18	X19	Y19	Z19	X20	Y20	Z20	X21	Y21	Z21	X22	Y22	Z22	X23	Y23	Z23	X24	Y24	Z24	X25	Y25	Z25	X26	Y26	Z26	X27	Y27	Z27	
151	3.282608695652174	0.31348195283583546	0.6429356220985748	0.9617650487737437	0.3299966103496301	0.7695516904013054	1.371332224711829	0.2983304646707989	0.9522510238230273	1.7713061435068862	0.2983075340412235	0.7126924276759949	1.8249760750549597	0.36099369717358515	0.7511973640962448	1.8140994658635254	0.27952761008807675	0.997326689914808	1.8098223677546834	0.0920130611416513	0.6435435882572778	0.9844991548777208	0.10694704952847357	0.749466710433995	1.374890761603336	0.12257275859464921	0.8639429988852796	1.75190200261336	0.1404335362234005	0.694314646543499	1.8201524538837208	0.07741258867855597	0.7367711572655568	1.8134782715683533	0.1482861171330433	0.9512376534521207	1.8061536860530163	0.17660958326277248	0.5166471428058225	0.42522811105979336	0.15849152196213437	0.43236859673346156	0.19047578199270893	0.17048880185347307	0.35920485079010145	0.3334418667774154	0.34015683279444925	0.49813013051617666	0.5037420463588075	0.363571420317735	0.5276947073000038	0.7476264687657627	0.3147846304543679	0.4733170970426933	0.9807411646448286	0.21728858448310776	0.4836082857161318	1.0561564074192058	0.21119423301588652	0.48553694831804833	1.0618251012374897	0.2243644070993291	0.48534068244146095	1.0657365706625828	0.038631483910468264	0.49961717437234654	0.5271991888728382	0.03082835839010705	0.49674026410519384	0.7868253849982502	0.14674119740699773	0.42793220597668574	0.9715281849364896	0.23222802478997592	0.4391438999446712	1.0310657199785602	0.23732804996418547	0.4454034393284593	1.0578320864933257	0.21274312062904893	0.48457347874490697	1.0739902989678907
152	3.3043478260869565	0.31346250457332286	0.6429016713129473	0.9618595552386618	0.3257024602503383	0.7675902262335211	1.3713551012097769	0.30429240123606477	0.9341839704106729	1.7647921595350187	0.2981213999709158	0.7132374145378341	1.8250868722334477	0.36089555470342927	0.7514303559902585	1.8138737731263324	0.28438203138612717	1.0113863575850948	1.8133444616421637	0.09205428051860838	0.6434093552669446	0.9845297080543687	0.10699673879377201	0.7495507384499003	1.3749395480917606	0.12450490044550218	0.8794898073087791	1.7568953692225273	0.13967588824464383	0.6911836025329383	1.8153772033017026	0.07657443641489743	0.7338582828783574	1.8084040046410144	0.14924262321031867	0.9562030121105896	1.8121843147390984	0.1766976130180341	0.5167297816284828	0.42519695590628465	0.1587073916137003	0.4321508894084266	0.1905984634653249	0.17546025901382603	0.34772891528859096	0.33105537318421674	0.34021772735632905	0.49814429968786145	0.5037437009017026	0.3635796518156661	0.5272675057649187	0.747881370128429	0.3110719008280333	0.471721994171034	0.9809146107325861	0.21047793667634299	0.48320251836735617	1.0565386163912411	0.21049617376659968	0.4831764568182723	1.0577791405241008	0.22425053430316602	0.4851945378412052	1.0658257042869717	0.03862856217284774	0.49754120827120346	0.5241623371354187	0.030858370122320983	0.4968221552453952	0.786966451871954	0.14118910095449042	0.4144445440292395	0.9706158928144853	0.23199296289400234	0.43925826053131195	1.03102716993644	0.23714436128723726	0.4454855974306777	1.0578427188286286	0.21256947874950366	0.4843798442129327	1.0738587911922104
153	3.3260869565217392	0.31342164426633334	0.6426670051192702	0.9618883681757481	0.32562581048434647	0.7677103730619882	1.371437447030425	0.30430665613482155	0.9345966746771753	1.7647438957661252	0.29837887878924335	0.7132069794221582	1.825150030248091	0.36113278624927136	0.7515603104135274	1.814046098230532	0.28437884298328087	1.0117547230150188	1.8129166221254842	0.09019086024246024	0.6298216034726088	0.9834034810548539	0.10752574824178365	0.7525740165178618	1.3799191278261913	0.1252542669465911	0.8829471803777106	1.7624188379735044	0.13971926075882382	0.6914946461820447	1.8154461932390404	0.07662666842324664	0.7340263546981017	1.8086020865728372	0.14982794234176489	0.954758797145941	1.8166387144675056	0.17680637844301778	0.5169148320369293	0.42510846414967873	0.15841514663821948	0.43182001631471784	0.1841719833393905	0.1756347610261244	0.3475883723771634	0.33100514945613224	0.34029098911960426	0.49821412186666175	0.5037337217985517	0.37032527081107325	0.5409012251306174	0.7476053310454756	0.3109660227788461	0.47181297899050223	0.9809683750241286	0.21009045509914287	0.48245176316998645	1.0563266842349113	0.206108557463952	0.4813836541643349	1.0576328448768912	0.22407768817655768	0.4851854295018394	1.0655784582238284	0.03957153419841012	0.5100192291832644	0.5194200241013365	0.030895677392487535	0.49670611389260133	0.7868301532855062	0.14100398112564305	0.41439236690034265	0.9703374305628167	0.22205539307427669	0.450095850997712	1.0367419602928614	0.227313043525997	0.4568748996028534	1.0569634517665978	0.21168779991487	0.4848989683867717	1.070350601219896
154	3.347826086956522	0.3133619315430552	0.6423293828350252	0.9617470741888701	0.32557305651143376	0.7677501973350817	1.3714553397295175	0.3042901970950342	0.9344978918033756	1.7650140986727794	0.3015818299872852	0.7283048798808128	1.8303269884871625	0.36141569780347005	0.7521847292370356	1.814413049701524	0.28425618042316386	1.0112381642257413	1.8141972242846964	0.09014071746240483	0.6298039328527318	0.983472650177433	0.10312472046204603	0.7504872847046954	1.379911348002982	0.12520906015998756	0.8827893511346991	1.762342260410614	0.1405274013472658	0.694876149585594	1.82022597035362	0.07738963993923278	0.7370201903928855	1.813642463333214	0.1500092920972974	0.9543872726925707	1.8164051306896365	0.18289288993665068	0.5310969455136956	0.42342961874728474	0.16953874117174886	0.43382441589369464	0.18322181516630764	0.17586031957366485	0.347168038797202	0.3277712710143295	0.34087875541741636	0.5002707371388869	0.5073474879330918	0.3704112410757715	0.5409788481697689	0.7476582729052459	0.3108764718450262	0.4715976569689852	0.9811307684728543	0.2057964605537752	0.48035426938010084	1.0565779584870847	0.20690264941633157	0.48052379074360135	1.0616119897168699	0.22192283835162743	0.4731570491375713	1.0642004125543962	0.04373579622366026	0.5129244074454687	0.5188617854645661	0.030824618645061516	0.49673123033413996	0.7865425493140219	0.13527458960815802	0.4266834386880665	0.972002855538548	0.2198903804703873	0.4350417231071609	1.0276722551681292	0.22712660285290073	0.4565927791471108	1.0567623961009776	0.21100252554697718	0.48295944193408874	1.0662478858516702
155	3.369565217391304	0.30837950050690627	0.6425131259267449	0.9659823867170045	0.3255048835663767	0.7679536709875409	1.37152651724693	0.2990697826721784	0.9511197484740547	1.7755506096022493	0.3015841790564702	0.7286954395112231	1.830524831246682	0.36032878034466703	0.7497427176783416	1.8093079813755664	0.2831795668757313	1.0129497402961936	1.8193359724383613	0.090135062993358	0.6296995333882114	0.9835648748370336	0.10370142763901087	0.7536764436324646	1.3851079625679519	0.12514193598708614	0.882914776346623	1.7625276160550705	0.14060755772500982	0.694721543582895	1.8202076610148574	0.0790631233992334	0.7515873240191713	1.818675860923885	0.1517946441010086	0.9704254419194647	1.8217062507822086	0.19277398356215364	0.519321126233381	0.42382685896122674	0.17417840994711115	0.43505548649848	0.18272988022797174	0.18475554569719774	0.3373795653004416	0.32836324234562486	0.345116733527648	0.5020879325565368	0.5071935186593116	0.3753632410093556	0.5442023559716129	0.7513540339429572	0.31068055359476826	0.4716980257275815	0.9812860028430508	0.2052341656987956	0.48139120351582576	1.0562570129515882	0.20571363331240275	0.48175222910739474	1.0577301516512512	0.21277588977316964	0.48397279464305715	1.0661951901511442	0.049580455096260564	0.5000908512381121	0.5190210057012128	0.030640006189542473	0.4968738470598157	0.7829501306300489	0.12987197956395027	0.4383215869126114	0.9702176852260628	0.21942830190581483	0.43495257303559226	1.0276926407766938	0.2230599759108968	0.4556258613155221	1.057131750810082	0.21067353949648046	0.4833684160557639	1.0658743825476318
